<svg width="872" height="262" viewBox="0 0 872 262" fill="none" xmlns="http://www.w3.org/2000/svg">
<path d="M54 222H48V262H54V222Z" fill="white"/>
<path d="M104.869 262L83.0073 231.527V262H77V222H83.1311L105.055 252.595V222H111V262H104.869Z" fill="white"/>
<path d="M214.869 262L193.007 231.527V262H187V222H193.131L215.055 252.595V222H221V262H214.869Z" fill="white"/>
<path d="M259.216 262C254.033 262 249.837 260.338 246.69 257.074C243.543 253.81 242 249.359 242 243.84V240.101C242 236.481 242.74 233.276 244.221 230.546C245.702 227.816 247.8 225.68 250.454 224.196C253.107 222.712 256.254 222 259.771 222C264.399 222 268.225 223.187 271.064 225.442C273.902 227.757 275.568 230.961 276 235.056V235.175H269.953V235.116C269.459 232.089 268.348 229.834 266.744 228.469C265.078 227.104 262.733 226.392 259.771 226.392C256.131 226.392 253.23 227.579 251.132 229.953C249.034 232.326 247.985 235.769 247.985 240.16V243.899C247.985 248.053 248.973 251.377 250.947 253.869C252.922 256.303 255.699 257.549 259.216 257.549C262.425 257.549 264.893 256.896 266.559 255.65C268.225 254.404 269.397 252.148 269.953 249.003V248.944H275.938V249.062C275.383 253.157 273.655 256.362 270.755 258.617C267.855 260.872 263.967 262 259.216 262Z" fill="white"/>
<path d="M303 222H297V262H303V222Z" fill="white"/>
<path d="M485.216 262C480.033 262 475.837 260.336 472.69 257.067C469.543 253.798 468 249.34 468 243.813V240.068C468 236.443 468.74 233.233 470.221 230.499C471.702 227.765 473.8 225.626 476.454 224.199C479.107 222.713 482.254 222 485.771 222C490.461 222 494.225 223.189 497.064 225.447C499.902 227.765 501.568 230.975 502 235.076V235.195H496.015V235.135C495.521 232.104 494.41 229.845 492.806 228.478C491.14 227.111 488.795 226.398 485.833 226.398C482.192 226.398 479.292 227.587 477.194 229.964C475.096 232.342 474.047 235.789 474.047 240.187V243.932C474.047 248.092 475.035 251.42 477.009 253.917C478.984 256.413 481.699 257.602 485.278 257.602C488.486 257.602 490.955 256.948 492.621 255.7C494.287 254.452 495.459 252.193 496.015 249.043V248.984H502V249.103C501.445 253.204 499.717 256.413 496.817 258.672C493.917 260.871 490.029 262 485.216 262Z" fill="white"/>
<path d="M523 262V222H529.035V257.481H550V262H523Z" fill="white"/>
<path d="M582.561 262C579.146 262 576.098 261.226 573.415 259.738C570.793 258.25 568.72 256.048 567.256 253.31C565.793 250.512 565.061 247.238 565 243.607V240.81C565 237.06 565.732 233.726 567.195 230.869C568.659 228.012 570.732 225.81 573.354 224.262C576.037 222.714 579.085 222 582.5 222C585.976 222 589.085 222.774 591.707 224.262C594.329 225.75 596.402 227.952 597.866 230.81C599.268 233.667 600 237 600 240.81V243.25C600 247.06 599.268 250.393 597.866 253.25C596.463 256.107 594.39 258.31 591.768 259.798C589.146 261.226 586.037 262 582.561 262ZM582.5 226.524C578.902 226.524 576.098 227.774 574.024 230.155C571.951 232.595 570.915 235.988 570.854 240.333V243.19C570.854 247.595 571.89 251.107 573.963 253.607C576.037 256.107 578.902 257.417 582.561 257.417C586.22 257.417 589.085 256.226 591.098 253.845C593.11 251.464 594.146 248.012 594.207 243.548V240.69C594.207 236.167 593.171 232.595 591.159 230.155C589.085 227.774 586.159 226.524 582.5 226.524Z" fill="white"/>
<path d="M636.938 262C632.12 262 628.228 260.841 625.386 258.524C622.544 256.207 621.062 252.976 621 248.89V222H627V248.675C627 251.48 627.795 253.707 629.525 255.232C631.255 256.756 633.726 257.549 636.938 257.549C640.151 257.549 642.683 256.756 644.413 255.232C646.143 253.707 647.008 251.512 647.008 248.707V222H653V248.768C653 252.488 651.641 255.598 649.046 257.915C646.452 260.293 642.93 261.634 638.483 261.878L636.938 262Z" fill="white"/>
<path d="M674 262V222H686.479C690.309 222 693.707 222.794 696.672 224.321C699.637 225.847 701.923 228.046 703.529 230.916C705.135 233.725 705.938 237.023 706 240.687V243.252C706 246.977 705.197 250.336 703.591 253.145C701.985 255.954 699.699 258.153 696.734 259.679C693.768 261.206 690.247 262 686.355 262H674ZM679.992 257.481H685.985C690.432 257.481 693.892 256.198 696.363 253.756C698.834 251.252 700.07 247.71 700.07 243.069V240.748C700.07 236.29 698.896 232.748 696.61 230.305C694.263 227.802 690.988 226.58 686.726 226.519H680.054L679.992 257.481Z" fill="white"/>
<path d="M0 262V222H28V227.985H6.11712V239.221L21.8829 238.977V245.023L6.11712 245.206V262H0Z" fill="white"/>
<path d="M162.933 262L159.033 252.412H140.029L136.19 262H130L146.9 222H152.1L169 262H162.933ZM142.505 246.366H156.619L149.562 228.779L142.505 246.366Z" fill="white"/>
<path d="M355.871 262L352.033 252.412H333.029L329.19 262H323L339.9 222H345.1L362 262H355.871ZM335.443 246.366H349.557L342.5 228.779L335.443 246.366Z" fill="white"/>
<path d="M380 262V222H386.035V255.954H407V262H380Z" fill="white"/>
<path d="M665.501 0L615.062 78.888L564.438 0H524V181H564.438V74.833L593.639 120.667H636.176L665.501 74.7101V181H706V0H665.501Z" fill="white"/>
<path d="M115.91 40.1813L141 0H0V40.0584V80.1782V120.237V181H40.5745V120.667H115.91L115.786 80.424H40.5745V40.1813H115.91Z" fill="white"/>
<path d="M233.5 0C183.522 0 143 40.5224 143 90.5C143 140.478 183.522 181 233.5 181C283.478 181 324 140.478 324 90.5C324 40.5224 283.478 0 233.5 0ZM233.5 139.127C205.748 139.127 183.215 116.594 183.215 88.8423C183.215 61.0906 205.748 38.5577 233.5 38.5577C261.252 38.5577 283.785 61.0906 283.785 88.8423C283.785 116.594 261.252 139.127 233.5 139.127Z" fill="white"/>
<path d="M489.571 97.3198C494.906 89.7013 497.945 80.4854 498.566 69.5492C498.938 65.4942 499.062 61.0706 498.69 56.4627C497.263 38.5838 494.223 27.7705 483.057 15.667C471.457 3.07196 458.367 0.430075 442.983 0H388.764H349V181H389.633V120.667H421.891L452.846 181H499L461.159 115.813C473.194 112.249 483.305 106.351 489.571 97.3198ZM437.586 82.1443C437.524 82.2057 389.633 82.1443 389.633 82.1443V38.3995H435.849C436.097 38.3995 439.012 38.5224 439.261 38.5838C450.055 39.8741 458.491 49.0285 458.491 60.2719C458.429 72.0682 449.186 81.5913 437.586 82.1443Z" fill="white"/>
<path d="M770 110.887H731C731 149.609 762.564 181 801.5 181C840.436 181 872 149.609 872 110.887C872 85.947 858.906 64.0481 839.182 51.6191L818.336 84.4058C827.149 89.9591 833 99.7437 833 110.887C833 128.189 818.897 142.214 801.5 142.214C784.103 142.214 770 128.189 770 110.887Z" fill="#00B4B4"/>
<path d="M846.5 40.1186H731V0H872L846.5 40.1186Z" fill="#00B4B4"/>
</svg>
